<?xml version="1.0" standalone="no"?>
<!DOCTYPE svg PUBLIC "-//W3C//DTD SVG 20010904//EN"
 "http://www.w3.org/TR/2001/REC-SVG-20010904/DTD/svg10.dtd">
<svg version="1.0" xmlns="http://www.w3.org/2000/svg"
 width="726.000000pt" height="586.000000pt" viewBox="0 0 726.000000 586.000000"
 preserveAspectRatio="xMidYMid meet">

<g transform="translate(0.000000,586.000000) scale(0.100000,-0.100000)"
fill="#ff2d20" stroke="none">
<path d="M65 5851 c-11 -5 -29 -19 -40 -31 -20 -22 -20 -36 -20 -2891 l0
-2869 28 -27 27 -28 3570 0 3570 0 27 28 28 27 0 2870 0 2870 -28 27 -27 28
-3558 2 c-1956 1 -3566 -2 -3577 -6z m5897 -1072 c72 -37 113 -137 88 -213
-25 -76 -104 -136 -180 -136 -80 0 -159 63 -181 143 -21 75 18 170 84 204 70
36 121 36 189 2z m-4414 -299 c72 -36 125 -92 159 -167 22 -47 25 -65 21 -127
-18 -268 -319 -394 -521 -217 -42 37 -93 136 -102 198 -20 129 78 281 212 329
21 7 68 13 104 14 54 0 77 -6 127 -30z m2715 -143 c23 -14 56 -40 73 -59 17
-18 302 -396 635 -841 l604 -807 5 772 5 773 27 51 c52 99 135 146 258 146
123 0 206 -47 258 -146 l27 -51 3 -1169 c3 -1337 8 -1243 -81 -1332 -119 -119
-302 -113 -419 15 -29 32 -321 411 -648 842 l-595 785 -5 -761 c-5 -745 -5
-761 -26 -805 -43 -92 -129 -149 -239 -158 -121 -9 -227 44 -281 140 l-29 53
-3 1179 c-3 1299 -6 1231 59 1309 84 102 257 131 372 64z m-673 -15 c94 -48
147 -151 137 -267 -5 -70 -31 -126 -79 -172 -65 -63 -87 -67 -355 -71 l-243
-4 0 -991 c0 -644 -4 -1005 -10 -1029 -42 -149 -210 -231 -375 -184 -45 14
-69 29 -110 70 -90 90 -85 17 -85 1147 l0 987 -242 4 c-231 3 -245 4 -290 26
-162 80 -197 301 -70 434 26 27 65 55 87 63 33 12 172 14 811 15 l772 0 52
-28z m-2055 -666 c58 -26 109 -80 139 -145 21 -46 21 -53 21 -871 l0 -825 -26
-56 c-54 -115 -130 -164 -254 -164 -96 0 -142 21 -203 90 -76 86 -73 41 -70
971 l3 829 31 55 c55 97 128 139 244 139 48 1 78 -5 115 -23z m476 -2312 c18
-22 1 -44 -48 -62 -47 -18 -73 -11 -73 18 0 15 12 27 43 40 51 24 61 24 78 4z
m188 -73 c8 -5 16 -32 19 -65 2 -31 6 -56 7 -56 18 0 35 16 35 34 0 34 23 58
51 54 20 -2 25 -9 27 -40 2 -28 8 -38 21 -38 9 0 22 -5 28 -11 8 -8 13 -8 17
0 12 18 54 13 66 -8 5 -11 10 -64 10 -119 0 -84 -3 -104 -19 -123 -16 -20 -23
-22 -38 -13 -15 9 -19 29 -23 120 -3 61 -9 103 -13 97 -5 -7 -17 -13 -27 -13
-17 0 -20 -9 -22 -96 -3 -81 -6 -99 -21 -108 -15 -9 -22 -7 -38 13 -15 19 -19
39 -19 106 0 74 -2 83 -20 88 -19 5 -20 0 -20 -83 0 -72 -3 -92 -19 -111 -16
-20 -23 -22 -38 -13 -16 10 -18 30 -21 189 -2 176 2 205 32 205 6 0 17 -4 25
-9z m265 -17 c9 -8 16 -22 16 -29 0 -16 -27 -45 -42 -45 -16 0 -48 31 -48 46
0 17 28 44 45 44 7 0 21 -7 29 -16z m1880 0 c9 -8 16 -22 16 -29 0 -16 -27
-45 -42 -45 -16 0 -48 31 -48 46 0 17 28 44 45 44 7 0 21 -7 29 -16z m340 0
c9 -8 16 -22 16 -29 0 -16 -27 -45 -42 -45 -16 0 -48 31 -48 46 0 17 28 44 45
44 7 0 21 -7 29 -16z m-2816 -16 c8 -8 12 -50 12 -123 0 -131 10 -155 67 -155
64 0 73 18 73 142 0 120 8 148 45 148 39 0 47 -30 43 -156 -3 -95 -6 -117 -24
-140 -71 -95 -198 -97 -261 -4 -21 30 -23 45 -23 160 0 70 3 130 7 133 11 11
48 8 61 -5z m2350 -40 c2 -29 8 -38 22 -38 10 0 22 -5 26 -11 4 -8 9 -8 17 0
18 18 55 13 67 -8 5 -11 10 -64 10 -119 0 -84 -3 -104 -19 -123 -16 -20 -23
-22 -38 -13 -15 9 -19 29 -23 120 -3 61 -9 103 -13 97 -5 -7 -17 -13 -27 -13
-17 0 -20 -9 -22 -96 -3 -81 -6 -99 -21 -108 -15 -9 -22 -7 -38 13 -15 19 -19
39 -19 106 0 74 -2 83 -20 88 -13 3 -20 14 -20 30 0 17 7 28 20 32 11 4 20 15
20 26 0 38 19 60 48 57 23 -3 27 -8 30 -40z m-1514 -52 c16 -10 26 -9 55 6 48
25 109 7 130 -39 18 -39 14 -198 -5 -217 -19 -20 -29 -20 -48 0 -12 11 -16 36
-16 98 0 84 -8 106 -41 106 -27 0 -34 -18 -39 -114 -4 -72 -9 -91 -23 -100
-15 -9 -22 -7 -38 13 -15 18 -19 39 -19 101 0 84 -12 107 -50 95 -18 -6 -20
-14 -20 -90 0 -65 -4 -88 -18 -105 -16 -19 -22 -21 -40 -11 -22 12 -22 17 -20
139 3 124 4 127 26 130 13 2 29 -1 36 -7 7 -6 16 -7 22 -2 22 22 71 20 108 -3z
m381 10 c21 -9 37 -11 40 -5 10 15 52 10 59 -7 3 -9 6 -66 6 -129 0 -86 -3
-115 -15 -125 -15 -13 -55 -5 -55 11 0 5 -11 2 -25 -7 -31 -20 -88 -14 -117
13 -83 75 -54 230 47 256 11 2 21 5 23 6 1 0 18 -5 37 -13z m275 -2 c33 -13
40 -21 40 -44 0 -31 -15 -41 -45 -29 -29 11 -65 11 -65 -1 0 -6 17 -18 38 -27
82 -37 103 -84 62 -136 -51 -64 -210 -31 -184 38 5 13 15 16 43 11 62 -11 76
-11 81 -1 3 5 -17 20 -45 33 -27 13 -55 31 -62 40 -29 39 -5 101 47 119 46 15
43 16 90 -3z m406 -6 c34 -16 44 -52 44 -153 0 -83 -2 -96 -19 -105 -26 -13
-50 -3 -56 24 -3 11 -6 54 -7 95 -2 58 -7 76 -20 85 -13 8 -23 8 -35 0 -14 -9
-19 -30 -23 -97 -6 -99 -22 -128 -59 -107 -21 10 -21 17 -19 138 3 124 4 127
26 130 13 2 29 -1 36 -7 7 -6 16 -7 22 -2 22 21 67 21 110 -1z m272 -5 c82
-51 80 -194 -2 -244 -88 -53 -196 12 -196 119 0 115 106 183 198 125z m546 -3
c12 -12 16 -24 11 -39 -6 -20 -11 -22 -60 -16 -47 6 -54 5 -64 -13 -6 -12 -11
-37 -11 -56 0 -49 35 -73 82 -57 25 9 35 8 46 -3 32 -31 -18 -76 -85 -76 -116
0 -167 170 -75 253 42 38 119 41 156 7z m291 16 c21 -9 37 -11 40 -5 10 15 52
10 59 -7 3 -9 6 -66 6 -129 0 -86 -3 -115 -15 -125 -15 -13 -55 -5 -55 11 0 5
-11 2 -25 -7 -31 -20 -88 -14 -117 13 -83 75 -54 230 47 256 11 2 21 5 23 6 1
0 18 -5 37 -13z m285 -2 c33 -13 40 -21 40 -44 0 -31 -15 -41 -45 -29 -29 11
-65 11 -65 -1 0 -6 17 -18 38 -27 82 -37 103 -84 62 -136 -51 -64 -210 -31
-184 38 5 13 15 16 43 11 62 -11 76 -11 81 -1 3 5 -17 20 -45 33 -27 13 -55
31 -62 40 -29 39 -5 101 47 119 46 15 43 16 90 -3z m-470 -13 c5 -11 10 -64
10 -119 0 -84 -3 -104 -19 -123 -16 -20 -23 -22 -38 -13 -15 10 -18 28 -21
129 -1 66 0 125 2 132 8 20 54 16 66 -6z"/>
<path d="M5786 4719 c-135 -118 36 -319 173 -203 38 32 54 85 41 134 -19 67
-63 100 -132 100 -39 0 -54 -6 -82 -31z m148 -20 c29 -23 34 -56 9 -66 -11 -4
-22 1 -31 15 -16 24 -51 29 -70 10 -7 -7 -12 -27 -12 -45 0 -26 6 -36 25 -45
21 -10 29 -8 48 10 32 30 57 29 57 -3 0 -18 -10 -31 -32 -45 -78 -48 -158 1
-158 95 0 80 100 125 164 74z"/>
<path d="M3020 1071 c-25 -47 -1 -121 38 -121 24 0 52 40 52 73 0 57 -66 92
-90 48z"/>
<path d="M3930 1071 c-17 -33 -12 -86 11 -107 19 -17 23 -17 47 -3 20 11 28
24 30 51 2 21 -2 46 -8 58 -14 27 -65 27 -80 1z"/>
<path d="M4810 1071 c-25 -47 -1 -121 38 -121 24 0 52 40 52 73 0 57 -66 92
-90 48z"/>
</g>
</svg>
